<svg width="51" height="43" viewBox="0 0 51 43" fill="none" xmlns="http://www.w3.org/2000/svg">
<path d="M27.6609 38.3295H23.3393C23.1468 38.3295 22.9621 38.2538 22.8259 38.1191C22.6898 37.9843 22.6133 37.8015 22.6133 37.6109V2.90171C22.6133 2.14392 22.9174 1.41716 23.4588 0.881311C24.0002 0.345467 24.7345 0.0444336 25.5001 0.0444336C26.2657 0.0444336 27 0.345467 27.5414 0.881311C28.0828 1.41716 28.3869 2.14392 28.3869 2.90171V37.6116C28.3867 37.8021 28.3101 37.9847 28.174 38.1193C28.0379 38.2539 27.8533 38.3295 27.6609 38.3295ZM24.0654 36.8923H26.9348V2.90171C26.9348 2.5251 26.7836 2.16392 26.5146 1.89761C26.2455 1.63131 25.8806 1.4817 25.5001 1.4817C25.1196 1.4817 24.7547 1.63131 24.4856 1.89761C24.2166 2.16392 24.0654 2.5251 24.0654 2.90171V36.8923Z" fill="#DEAB52"/>
<path d="M8.00165 9.6787H5.50909C4.91771 9.6682 4.35413 9.42831 3.93966 9.01065C3.52519 8.593 3.29297 8.03098 3.29297 7.44555C3.29297 6.86013 3.52519 6.2981 3.93966 5.88045C4.35413 5.4628 4.91771 5.2229 5.50909 5.2124H7.64806C7.84062 5.2124 8.0253 5.28812 8.16146 5.42288C8.29762 5.55765 8.37412 5.74044 8.37412 5.93103C8.37412 6.12163 8.29762 6.30441 8.16146 6.43918C8.0253 6.57395 7.84062 6.64967 7.64806 6.64967H5.50909C5.30001 6.65588 5.10159 6.74246 4.95592 6.89104C4.81025 7.03962 4.72878 7.23851 4.72878 7.44555C4.72878 7.65259 4.81025 7.85148 4.95592 8.00006C5.10159 8.14864 5.30001 8.23522 5.50909 8.24144H8.00165C8.19421 8.24144 8.37889 8.31715 8.51505 8.45192C8.65121 8.58669 8.72771 8.76947 8.72771 8.96007C8.72771 9.15066 8.65121 9.33345 8.51505 9.46822C8.37889 9.60299 8.19421 9.6787 8.00165 9.6787Z" fill="#DEAB52"/>
<path d="M23.3394 9.6787H12.394C12.2015 9.6787 12.0168 9.60299 11.8806 9.46822C11.7445 9.33345 11.668 9.15066 11.668 8.96007C11.668 8.76947 11.7445 8.58669 11.8806 8.45192C12.0168 8.31715 12.2015 8.24144 12.394 8.24144H22.6133V6.64967H12.7469C12.5543 6.64967 12.3697 6.57395 12.2335 6.43918C12.0973 6.30441 12.0208 6.12163 12.0208 5.93103C12.0208 5.74044 12.0973 5.55765 12.2335 5.42288C12.3697 5.28812 12.5543 5.2124 12.7469 5.2124H23.3394C23.5319 5.2124 23.7166 5.28812 23.8528 5.42288C23.9889 5.55765 24.0654 5.74044 24.0654 5.93103V8.96007C24.0654 9.15066 23.9889 9.33345 23.8528 9.46822C23.7166 9.60299 23.5319 9.6787 23.3394 9.6787Z" fill="#DEAB52"/>
<path d="M38.4487 9.6787H27.6616C27.469 9.6787 27.2844 9.60299 27.1482 9.46822C27.012 9.33345 26.9355 9.15066 26.9355 8.96007V5.93103C26.9355 5.74044 27.012 5.55765 27.1482 5.42288C27.2844 5.28812 27.469 5.2124 27.6616 5.2124H38.0958C38.2884 5.2124 38.4731 5.28812 38.6092 5.42288C38.7454 5.55765 38.8219 5.74044 38.8219 5.93103C38.8219 6.12163 38.7454 6.30441 38.6092 6.43918C38.4731 6.57395 38.2884 6.64967 38.0958 6.64967H28.3877V8.24144H38.4487C38.6412 8.24144 38.8259 8.31715 38.9621 8.45192C39.0982 8.58669 39.1747 8.76947 39.1747 8.96007C39.1747 9.15066 39.0982 9.33345 38.9621 9.46822C38.8259 9.60299 38.6412 9.6787 38.4487 9.6787Z" fill="#DEAB52"/>
<path d="M45.4829 9.6787H42.9975C42.805 9.6787 42.6203 9.60299 42.4841 9.46822C42.348 9.33345 42.2715 9.15066 42.2715 8.96007C42.2715 8.76947 42.348 8.58669 42.4841 8.45192C42.6203 8.31715 42.805 8.24144 42.9975 8.24144H45.4829C45.6919 8.23522 45.8903 8.14864 46.036 8.00006C46.1817 7.85148 46.2632 7.65259 46.2632 7.44555C46.2632 7.23851 46.1817 7.03962 46.036 6.89104C45.8903 6.74246 45.6919 6.65588 45.4829 6.64967H43.3555C43.1629 6.64967 42.9783 6.57395 42.8421 6.43918C42.7059 6.30441 42.6294 6.12163 42.6294 5.93103C42.6294 5.74044 42.7059 5.55765 42.8421 5.42288C42.9783 5.28812 43.1629 5.2124 43.3555 5.2124H45.4829C46.0742 5.2229 46.6378 5.4628 47.0523 5.88045C47.4667 6.2981 47.699 6.86013 47.699 7.44555C47.699 8.03098 47.4667 8.593 47.0523 9.01065C46.6378 9.42831 46.0742 9.6682 45.4829 9.6787Z" fill="#DEAB52"/>
<path d="M34.6949 42.9546H16.3038C16.1936 42.9546 16.0848 42.9297 15.9858 42.8818C15.8868 42.834 15.8 42.7645 15.7321 42.6785C15.6643 42.5926 15.6171 42.4925 15.5941 42.3858C15.5711 42.2791 15.573 42.1687 15.5995 42.0628C15.8989 40.6416 16.6698 39.3603 17.7897 38.4227C18.9096 37.4852 20.3141 36.9452 21.7797 36.8887H29.2189C30.6846 36.9452 32.0891 37.4852 33.209 38.4227C34.3288 39.3603 35.0998 40.6416 35.3992 42.0628C35.4257 42.1687 35.4276 42.2791 35.4046 42.3858C35.3816 42.4925 35.3344 42.5926 35.2666 42.6785C35.1987 42.7645 35.1119 42.834 35.0129 42.8818C34.9138 42.9297 34.8051 42.9546 34.6949 42.9546ZM17.3079 41.5174H33.6908C33.3451 40.6094 32.7364 39.8225 31.941 39.2554C31.1455 38.6883 30.1986 38.3663 29.2189 38.3295H21.7797C20.8001 38.3663 19.8532 38.6883 19.0577 39.2554C18.2622 39.8225 17.6536 40.6094 17.3079 41.5174Z" fill="#DEAB52"/>
<path d="M36.6608 42.9548H14.3374C14.1448 42.9548 13.9601 42.8791 13.824 42.7444C13.6878 42.6096 13.6113 42.4268 13.6113 42.2362C13.6113 42.0456 13.6878 41.8628 13.824 41.7281C13.9601 41.5933 14.1448 41.5176 14.3374 41.5176H36.6608C36.8533 41.5176 37.038 41.5933 37.1742 41.7281C37.3104 41.8628 37.3868 42.0456 37.3868 42.2362C37.3868 42.4268 37.3104 42.6096 37.1742 42.7444C37.038 42.8791 36.8533 42.9548 36.6608 42.9548Z" fill="#DEAB52"/>
<path d="M50.186 27.6973H31.4238C31.3023 27.6974 31.1827 27.6673 31.076 27.6098C30.9692 27.5522 30.8788 27.469 30.813 27.3679C30.7471 27.2668 30.708 27.1509 30.6992 27.0309C30.6904 26.911 30.7121 26.7907 30.7624 26.6812L38.7345 9.30901C38.7738 9.22283 38.8299 9.14516 38.8995 9.08045C38.9691 9.01574 39.051 8.96527 39.1404 8.93193C39.2297 8.89858 39.3249 8.88302 39.4203 8.88613C39.5158 8.88924 39.6097 8.91097 39.6967 8.95006C39.7836 8.98915 39.862 9.04484 39.9271 9.11394C39.9923 9.18304 40.0431 9.26419 40.0765 9.35274C40.11 9.4413 40.1254 9.53551 40.122 9.62999C40.1186 9.72447 40.0964 9.81735 40.0567 9.90332L32.5507 26.2601H49.0562L41.5567 9.90332C41.5174 9.81735 41.4955 9.72454 41.4923 9.63019C41.4892 9.53585 41.5049 9.44182 41.5384 9.35347C41.572 9.26511 41.6228 9.18417 41.688 9.11526C41.7532 9.04635 41.8315 8.99083 41.9183 8.95185C42.0052 8.91288 42.0989 8.89122 42.1943 8.88811C42.2896 8.885 42.3846 8.9005 42.4739 8.93374C42.5631 8.96697 42.6449 9.01728 42.7145 9.08179C42.7841 9.1463 42.8402 9.22376 42.8796 9.30973L50.8438 26.6819C50.8938 26.7911 50.9154 26.911 50.9067 27.0306C50.898 27.1501 50.8591 27.2657 50.7937 27.3666C50.7283 27.4675 50.6385 27.5507 50.5323 27.6085C50.4262 27.6662 50.3071 27.6968 50.186 27.6973Z" fill="#DEAB52"/>
<path d="M40.8797 36.8635H40.7287C34.9152 36.8635 30.6953 32.7069 30.6953 26.9794C30.6953 26.7888 30.7718 26.606 30.908 26.4712C31.0441 26.3365 31.2288 26.2607 31.4214 26.2607H50.1864C50.3789 26.2607 50.5636 26.3365 50.6998 26.4712C50.8359 26.606 50.9124 26.7888 50.9124 26.9794C50.9124 32.7105 46.6926 36.8635 40.8797 36.8635ZM32.1728 27.698C32.4967 32.2843 35.9229 35.4262 40.7287 35.4262H40.8797C45.6848 35.4262 49.1118 32.2843 49.4349 27.698H32.1728Z" fill="#DEAB52"/>
<path d="M40.8044 10.7033C40.0984 10.7034 39.4082 10.4963 38.8211 10.1082C38.2341 9.72006 37.7765 9.16833 37.5062 8.52276C37.236 7.8772 37.1652 7.16681 37.3029 6.48145C37.4406 5.79609 37.7806 5.16654 38.2798 4.67243C38.779 4.17831 39.4151 3.84183 40.1075 3.70554C40.8 3.56925 41.5177 3.63927 42.1699 3.90675C42.8221 4.17423 43.3796 4.62715 43.7717 5.20822C44.1639 5.7893 44.3731 6.47243 44.373 7.17121C44.3718 8.10762 43.9955 9.00536 43.3265 9.6675C42.6575 10.3296 41.7505 10.7021 40.8044 10.7033ZM40.8044 5.07568C40.3856 5.07554 39.9762 5.19832 39.628 5.42849C39.2797 5.65866 39.0082 5.98589 38.8479 6.36879C38.6875 6.75168 38.6455 7.17304 38.7271 7.57959C38.8087 7.98613 39.0103 8.35958 39.3063 8.65272C39.6024 8.94585 39.9796 9.1455 40.3904 9.22642C40.8011 9.30733 41.2268 9.26588 41.6137 9.10729C42.0006 8.94871 42.3313 8.68012 42.564 8.3355C42.7967 7.99087 42.9209 7.5857 42.9209 7.17121C42.9203 6.61574 42.6971 6.08317 42.3004 5.69033C41.9036 5.29748 41.3656 5.07644 40.8044 5.07568Z" fill="#DEAB52"/>
<path d="M19.5751 27.6974H0.813749C0.692267 27.6974 0.572735 27.6671 0.466102 27.6095C0.359469 27.5519 0.269145 27.4688 0.203401 27.3677C0.137658 27.2666 0.0985973 27.1507 0.089798 27.0308C0.0809986 26.9109 0.102741 26.7907 0.153035 26.6812L8.12662 9.30905C8.20624 9.13542 8.35229 9.00021 8.53264 8.93317C8.71299 8.86612 8.91286 8.87273 9.08828 8.95154C9.26371 9.03035 9.40032 9.1749 9.46806 9.3534C9.5358 9.53191 9.52912 9.72973 9.4495 9.90336L1.9435 26.2601H18.449L10.9495 9.90336C10.9078 9.81712 10.8839 9.7235 10.8793 9.628C10.8746 9.5325 10.8892 9.43704 10.9222 9.3472C10.9553 9.25736 11.0062 9.17495 11.0718 9.10481C11.1374 9.03466 11.2166 8.97819 11.3045 8.93869C11.3925 8.8992 11.4876 8.87747 11.5841 8.87479C11.6807 8.87212 11.7768 8.88854 11.8669 8.9231C11.957 8.95765 12.0392 9.00965 12.1087 9.07605C12.1782 9.14245 12.2336 9.22191 12.2717 9.30977L20.2366 26.682C20.2867 26.7914 20.3083 26.9116 20.2994 27.0315C20.2905 27.1514 20.2514 27.2671 20.1855 27.3682C20.1197 27.4692 20.0294 27.5523 19.9227 27.6098C19.8161 27.6673 19.6966 27.6974 19.5751 27.6974Z" fill="#DEAB52"/>
<path d="M10.2716 36.8635H10.1206C4.30775 36.8635 0.0878906 32.7105 0.0878906 26.9794C0.0878906 26.7888 0.164386 26.606 0.300548 26.4712C0.436711 26.3365 0.621387 26.2607 0.81395 26.2607H19.579C19.7715 26.2607 19.9562 26.3365 20.0924 26.4712C20.2285 26.606 20.305 26.7888 20.305 26.9794C20.305 32.7105 16.0852 36.8635 10.2716 36.8635ZM1.56542 27.698C1.88852 32.2843 5.31552 35.4262 10.1206 35.4262H10.2716C15.0774 35.4262 18.5037 32.2843 18.8275 27.698H1.56542Z" fill="#DEAB52"/>
<path d="M10.1963 10.7033C9.49029 10.7033 8.80017 10.4961 8.21319 10.1078C7.6262 9.71963 7.16871 9.16784 6.89858 8.52226C6.62845 7.87669 6.55781 7.16633 6.69559 6.48101C6.83337 5.7957 7.17339 5.16621 7.67264 4.67217C8.17189 4.17813 8.80794 3.84172 9.50037 3.70549C10.1928 3.56926 10.9105 3.63932 11.5627 3.90682C12.2149 4.17432 12.7723 4.62724 13.1644 5.2083C13.5565 5.78936 13.7657 6.47246 13.7656 7.17121C13.7644 8.10775 13.388 9.00559 12.7188 9.66775C12.0497 10.3299 11.1425 10.7023 10.1963 10.7033ZM10.1963 5.07568C9.77752 5.07568 9.36819 5.19858 9.02002 5.42884C8.67185 5.6591 8.40048 5.98638 8.24023 6.36928C8.07999 6.75219 8.03806 7.17353 8.11975 7.58003C8.20145 7.98652 8.40309 8.35991 8.69918 8.65297C8.99528 8.94604 9.37253 9.14562 9.78322 9.22647C10.1939 9.30733 10.6196 9.26583 11.0065 9.10723C11.3933 8.94862 11.724 8.68003 11.9566 8.33542C12.1893 7.99081 12.3135 7.58567 12.3135 7.17121C12.3129 6.61561 12.0896 6.08294 11.6927 5.69008C11.2958 5.29721 10.7576 5.07625 10.1963 5.07568Z" fill="#DEAB52"/>
</svg>
